<svg xmlns="http://www.w3.org/2000/svg" width="21.6" height="24" viewBox="0 0 21.6 24">
  <path id="calendar-month-outline" d="M9.3,15h2.4v2.4H9.3V15M26.1,7.8V24.6A2.4,2.4,0,0,1,23.7,27H6.9a2.4,2.4,0,0,1-2.4-2.4V7.8A2.4,2.4,0,0,1,6.9,5.4H8.1V3h2.4V5.4h9.6V3h2.4V5.4h1.2a2.4,2.4,0,0,1,2.4,2.4M6.9,10.2H23.7V7.8H6.9v2.4M23.7,24.6v-12H6.9v12H23.7m-4.8-7.2V15h2.4v2.4H18.9m-4.8,0V15h2.4v2.4H14.1M9.3,19.8h2.4v2.4H9.3V19.8m9.6,2.4V19.8h2.4v2.4H18.9m-4.8,0V19.8h2.4v2.4Z" transform="translate(-4.5 -3)" fill="#333f4c"/>
</svg>