<svg xmlns="http://www.w3.org/2000/svg" width="22.153" height="24" viewBox="0 0 22.153 24">
  <path id="worldwide-location" d="M18,0a3.693,3.693,0,0,0-3.692,3.692c0,2.46,3.231,5.821,3.231,9.2h.923c0-3.381,3.23-6.645,3.23-9.2A3.693,3.693,0,0,0,18,0Zm0,1.789a1.9,1.9,0,1,1-1.906,1.9A1.9,1.9,0,0,1,18,1.789Zm-5.539.057a11.1,11.1,0,1,0,9.807,5.942c-.123.244-.247.475-.375.722-.243.469-.5.943-.722,1.413A9.03,9.03,0,0,1,21.634,12H20.422a4.233,4.233,0,0,0-.115.895v.951h1.327a9.12,9.12,0,0,1-1.183,3.692H17.742a19.852,19.852,0,0,0,.4-2.8H16.326a17.28,17.28,0,0,1-.489,2.8H9.086a17.76,17.76,0,0,1-.548-3.692h7.154v-.952A4.32,4.32,0,0,0,15.576,12H8.538a17.76,17.76,0,0,1,.548-3.692h4.933q-.48-.907-.9-1.846H9.72c.763-1.742,1.772-2.769,2.741-2.769a5.423,5.423,0,0,1,.317-1.817C12.673,1.871,12.569,1.846,12.462,1.846ZM8.654,4.529A11.413,11.413,0,0,0,7.73,6.461H5.884A9.223,9.223,0,0,1,8.654,4.529ZM4.472,8.308h2.71A19.775,19.775,0,0,0,6.692,12h-3.4A9.106,9.106,0,0,1,4.472,8.308ZM3.288,13.847h3.4a19.854,19.854,0,0,0,.49,3.692H4.472a9.134,9.134,0,0,1-1.183-3.692Zm2.6,5.539H7.731a11.376,11.376,0,0,0,.923,1.933,9.223,9.223,0,0,1-2.769-1.933Zm3.836,0H15.2c-.763,1.742-1.772,2.769-2.741,2.769S10.484,21.127,9.721,19.385Zm7.471,0h1.846a9.223,9.223,0,0,1-2.769,1.933,11.378,11.378,0,0,0,.923-1.933Z" transform="translate(-1.385)" fill="#333f4c"/>
</svg>